<svg xmlns="http://www.w3.org/2000/svg" viewBox="0 0 24 24">
  <g>
    <rect width="24" height="24" opacity="0"/>
    <path d="M22,13.804878 C22,14.0162602 21.9208333,14.199187 21.7625,14.3536585 C21.6041667,14.5081301 21.4166667,14.5853659 21.2,14.5853659 L18.4,14.5853659 C18.4,15.9756098 18.1208333,17.1544715 17.5625,18.1219512 L20.1625,20.6707317 C20.3208333,20.8252033 20.4,21.0081301 20.4,21.2195122 C20.4,21.4308943 20.3208333,21.6138211 20.1625,21.7682927 C20.0125,21.9227642 19.825,22 19.6,22 C19.375,22 19.1875,21.9227642 19.0375,21.7682927 L16.5625,19.3658537 C16.5208333,19.4065041 16.4583333,19.4593496 16.375,19.5243902 C16.2916667,19.5894309 16.1166667,19.7052846 15.85,19.8719512 C15.5833333,20.0386179 15.3125,20.1869919 15.0375,20.3170732 C14.7625,20.4471545 14.4208333,20.5650407 14.0125,20.6707317 C13.6041667,20.7764228 13.2,20.8292683 12.8,20.8292683 L12.8,9.90243902 L11.2,9.90243902 L11.2,20.8292683 C10.775,20.8292683 10.3520833,20.7743902 9.93125,20.6646341 C9.51041667,20.554878 9.14791667,20.4207317 8.84375,20.2621951 C8.53958333,20.1036585 8.26458333,19.945122 8.01875,19.7865854 C7.77291667,19.6280488 7.59166667,19.495935 7.475,19.3902439 L7.2875,19.2195122 L5,21.7439024 C4.83333333,21.9146341 4.63333333,22 4.4,22 C4.2,22 4.02083333,21.9349593 3.8625,21.804878 C3.70416667,21.6585366 3.61875,21.4776423 3.60625,21.2621951 C3.59375,21.046748 3.65833333,20.8577236 3.8,20.695122 L6.325,17.9268293 C5.84166667,17 5.6,15.8861789 5.6,14.5853659 L2.8,14.5853659 C2.58333333,14.5853659 2.39583333,14.5081301 2.2375,14.3536585 C2.07916667,14.199187 2,14.0162602 2,13.804878 C2,13.5934959 2.07916667,13.4105691 2.2375,13.2560976 C2.39583333,13.101626 2.58333333,13.0243902 2.8,13.0243902 L5.6,13.0243902 L5.6,9.43902439 L3.4375,7.32926829 C3.27916667,7.17479675 3.2,6.99186992 3.2,6.7804878 C3.2,6.56910569 3.27916667,6.38617886 3.4375,6.23170732 C3.59583333,6.07723577 3.78333333,6 4,6 C4.21666667,6 4.40416667,6.07723577 4.5625,6.23170732 L6.725,8.34146341 L17.275,8.34146341 L19.4375,6.23170732 C19.5958333,6.07723577 19.7833333,6 20,6 C20.2166667,6 20.4041667,6.07723577 20.5625,6.23170732 C20.7208333,6.38617886 20.8,6.56910569 20.8,6.7804878 C20.8,6.99186992 20.7208333,7.17479675 20.5625,7.32926829 L18.4,9.43902439 L18.4,13.0243902 L21.2,13.0243902 C21.4166667,13.0243902 21.6041667,13.101626 21.7625,13.2560976 C21.9208333,13.4105691 22,13.5934959 22,13.804878 Z M16,7 L8,7 C8,5.89166667 8.38958333,4.94791667 9.16875,4.16875 C9.94791667,3.38958333 10.8916667,3 12,3 C13.1083333,3 14.0520833,3.38958333 14.83125,4.16875 C15.6104167,4.94791667 16,5.89166667 16,7 Z"/>
  </g>
</svg>
