<svg xmlns="http://www.w3.org/2000/svg" viewBox="0 0 24 24">
  <g>
    <rect width="24" height="24" opacity="0"/>
    <path d="M6.24722965,17.5183045 C6.23029206,17.6167807 6.20278071,17.6938518 6.16469513,17.7495181 C6.12659489,17.8051768 6.08215329,17.8501352 6.03137007,17.8843929 C5.98057243,17.918643 5.92978213,17.9357698 5.87899868,17.9357738 C5.72662043,17.9700237 5.59329537,17.9892914 5.4790235,17.9935773 C5.36473839,17.997855 5.22718095,17.9999957 5.06635092,18 C4.49918473,17.9999957 4.03360577,17.9079384 3.66961262,17.7238279 C3.30560955,17.5397093 3.01779726,17.2656783 2.80617433,16.9017341 C2.59454359,16.5377837 2.45063745,16.0817789 2.37445518,15.5337187 C2.29826605,14.9856549 2.26017314,14.2577603 2.26017645,13.350032 L2.26017645,12.8150288 C2.26017314,12.2327162 2.22419655,11.7617254 2.15224667,11.4020552 C2.0802904,11.0423942 1.97024454,10.7276867 1.82210861,10.4579318 C1.673967,10.1881882 1.48350293,9.96981979 1.2507157,9.80282582 C1.01792385,9.63584452 0.736460189,9.53522359 0.406323877,9.50096327 C0.330136714,9.48384291 0.266648676,9.46029336 0.215859551,9.43031462 C0.165067825,9.40034903 0.124858723,9.35539085 0.0952321513,9.29543983 C0.0656032151,9.23550243 0.0423242553,9.15629014 0.0253952482,9.05780343 C0.00846397163,8.95933058 -1.08747045e-06,8.84586443 0,8.71740519 C-1.08747045e-06,8.5803969 0.00634770686,8.4647903 0.0190464303,8.37058446 C0.0317429314,8.27639391 0.0529056028,8.19718186 0.082534539,8.13294806 C0.112161111,8.0687298 0.152370213,8.02377161 0.203161939,7.99807326 C0.253951064,7.97239069 0.317439125,7.95098206 0.393626241,7.93384711 C1.02004012,7.86534751 1.48773532,7.55920338 1.79671333,7.01541424 C2.06334174,6.5461656 2.21492731,5.88400279 2.2514705,5.02892457 C2.25727402,4.89312743 2.26069857,4.44719216 2.26174392,4.34922799 C2.26986602,3.58807419 2.30955273,2.96470738 2.38080388,2.47912656 C2.46121877,1.93108023 2.60935754,1.47293461 2.82522066,1.10468849 C3.04107622,0.736476343 3.32888851,0.460304495 3.68865896,0.276172136 C4.04841972,0.092075363 4.50764998,1.8080084e-05 5.06635092,0 C5.22718095,1.8080084e-05 5.360506,0.00215894379 5.46632586,0.00642261504 C5.57213272,0.0107224225 5.70122515,0.0299902198 5.8536034,0.0642260786 C5.91285187,0.064244087 5.96999111,0.0792301568 6.02502113,0.109184336 C6.08003697,0.139174436 6.12659489,0.184132646 6.16469513,0.244059084 C6.20278071,0.304021205 6.23029206,0.383233282 6.24722965,0.481695578 C6.26415234,0.580193053 6.27261759,0.697940749 6.27262492,0.834938974 C6.27261759,0.980535189 6.26415234,1.10256461 6.24722965,1.20102762 C6.23029206,1.29952438 6.20278071,1.38301819 6.16469513,1.4515093 C6.12659489,1.52003368 6.08003697,1.56713268 6.02502113,1.59280664 C5.96999111,1.6185136 5.90861948,1.63135883 5.84090577,1.63134233 L5.32030317,1.64418756 C5.11713508,1.64420406 4.94360104,1.6805986 4.7997008,1.7533719 C4.65578875,1.82617772 4.53939395,1.96747501 4.45051617,2.17726401 C4.36162752,2.38708482 4.29390671,2.6761019 4.24735423,3.04431596 C4.20946996,3.34392356 4.18699894,3.77390132 4.17994117,4.33425014 C4.17832432,4.4626195 4.17548151,4.80505231 4.17141364,4.94719683 C4.15888264,5.3850706 4.12705693,5.77047277 4.0759365,6.10340386 C4.00821073,6.54443235 3.88758331,6.94049286 3.71405423,7.29158633 C3.54051546,7.64269725 3.30984217,7.94455956 3.0220339,8.19717397 C2.73421735,8.44980416 2.37021924,8.62321441 1.93003839,8.71740519 C2.37021924,8.80304715 2.73421735,8.97217558 3.0220339,9.22479118 C3.30984217,9.47742042 3.54051546,9.7814234 3.71405423,10.1368016 C3.88758331,10.4921912 4.00821073,10.8882517 4.0759365,11.324984 C4.14365187,11.7617254 4.17751215,12.2969423 4.17751735,12.9306359 L4.17751735,13.2601156 C4.17751215,14.0137014 4.1986748,14.5746085 4.24100553,14.9428388 C4.28332539,15.3110668 4.34892988,15.6000838 4.43781853,15.8098908 C4.52669631,16.0196939 4.6409748,16.1631319 4.78065447,16.2402054 C4.92032208,16.3172744 5.08750742,16.3558098 5.2822105,16.3558125 L5.8155105,16.3686577 C5.89168922,16.3686551 5.95940979,16.3815003 6.01867243,16.4071934 C6.0779209,16.4328812 6.12659489,16.4778394 6.16469513,16.5420679 C6.20278071,16.6062915 6.23029206,16.6876444 6.24722965,16.7861271 C6.26415234,16.884604 6.27261759,17.0109151 6.27262492,17.165061 C6.27261759,17.3020731 6.26415234,17.4198209 6.24722965,17.5183045 Z M17.2789738,9.0385357 C17.2662683,9.13274059 17.2451057,9.20981197 17.2154856,9.2697496 C17.1858501,9.32970039 17.1456411,9.37465857 17.0948582,9.40462416 C17.0440603,9.4346029 16.9848047,9.45387087 16.9170915,9.46242782 C16.5615511,9.49668814 16.2652735,9.62299929 16.0282582,9.84136151 C15.7912296,10.0597362 15.5986492,10.3401898 15.4505163,10.6827232 C15.3023716,11.0252672 15.1986745,11.4084824 15.1394246,11.83237 C15.0989393,12.1219613 15.0722845,12.4565138 15.05946,12.8360277 C15.0535124,13.0120358 15.0477748,13.7981153 15.0422463,14.0049615 C15.0261404,14.6075589 14.98658,15.1128627 14.923565,15.5208735 C14.838909,16.0689337 14.6907702,16.5270792 14.4791482,16.8953114 C14.2675165,17.2635374 13.979704,17.5397093 13.6157102,17.7238279 C13.2517078,17.9079384 12.7945939,17.9999957 12.2443669,18 C12.0835279,17.9999957 11.9480868,17.9957141 11.838043,17.9871548 C11.7279948,17.9785871 11.588321,17.9614602 11.4190215,17.9357738 C11.3597641,17.9357698 11.3047411,17.918643 11.2539525,17.8843929 C11.2031603,17.8501352 11.160835,17.8051768 11.1269764,17.7495181 C11.0931144,17.6938518 11.0634868,17.6167807 11.0380929,17.5183045 C11.0126962,17.4198209 10.9999986,17.3020731 11,17.165061 C10.9999986,17.0194788 11.0126962,16.8974492 11.0380929,16.7989723 C11.0634868,16.7004894 11.0952307,16.6169958 11.1333251,16.5484907 C11.1714163,16.4799803 11.2158579,16.4328812 11.2666501,16.4071934 C11.3174388,16.3815003 11.3724617,16.3686551 11.4317191,16.3686577 L11.977717,16.3558125 C12.1808761,16.3558098 12.3544102,16.3172744 12.4983194,16.2402054 C12.6422227,16.1631319 12.7607336,16.0218346 12.8538527,15.8163133 C12.9469652,15.6107882 13.0146858,15.323912 13.0570147,14.9556841 C13.0837309,14.7232346 13.1020153,14.4122991 13.111868,14.022877 C13.1176233,13.7954035 13.1287886,12.9032859 13.1453652,12.6306896 C13.1633246,12.3353538 13.1910137,12.058543 13.2284326,11.8002568 C13.300382,11.3035799 13.4210092,10.8411526 13.5903149,10.4129736 C13.7596123,9.98480569 13.9902853,9.61657656 14.2823352,9.30828506 C14.5743754,9.00000695 14.9362572,8.79876533 15.3679818,8.70455996 C14.9362572,8.61893259 14.5743754,8.48191712 14.2823352,8.29351308 C13.9902853,8.10512458 13.7596123,7.86748818 13.5903149,7.58060364 C13.4210092,7.29373585 13.300382,6.96190149 13.2284326,6.58509963 C13.1564759,6.20831642 13.1204993,5.70307158 13.1205028,5.06936415 L13.1205028,4.73988442 C13.1204993,3.97774909 13.0993366,3.41470107 13.0570147,3.0507387 C13.0146858,2.68680622 12.9490816,2.39993005 12.8602017,2.19010924 C12.7713149,1.98032 12.6570364,1.83688203 12.5173657,1.75979439 C12.3776891,1.68273951 12.210504,1.64420406 12.0158097,1.64418756 L11.507905,1.63134233 C11.4147872,1.63135883 11.3364853,1.6185136 11.2729991,1.59280664 C11.2095092,1.56713268 11.1566024,1.52217457 11.1142787,1.45793192 C11.0719518,1.39372253 11.0423239,1.31236959 11.0253953,1.21387283 C11.0084636,1.11540982 10.9999986,0.989098667 11,0.834938974 C10.9999986,0.697940749 11.0105799,0.580193053 11.0317442,0.481695578 C11.0529052,0.383233282 11.0825331,0.304021205 11.1206274,0.244059084 C11.1587187,0.184132646 11.2052766,0.139174436 11.2603014,0.109184336 C11.3153225,0.0792301568 11.380927,0.064244087 11.4571144,0.0642260786 C11.6010187,0.0299902198 11.7279948,0.0107224225 11.838043,0.00642261504 C11.9480868,0.00215894379 12.0835279,1.8080084e-05 12.2443669,0 C12.8030591,1.8080084e-05 13.2644054,0.092075363 13.6284076,0.276172136 C13.9924017,0.460304495 14.2802142,0.73433548 14.4918459,1.0982659 C14.7034678,1.46223029 14.8494903,1.918235 14.9299139,2.46628133 C15.0103267,3.01435899 15.0505357,3.7422536 15.0505411,4.64996781 L15.0505411,5.18497098 C15.0505357,5.76729773 15.0865123,6.2061755 15.1584709,6.50160551 C15.2304184,6.79705465 15.3404645,7.04325446 15.4886092,7.24020541 C15.6367421,7.43717405 15.8272061,7.58917566 16.0600021,7.69621071 C16.2927851,7.80326227 16.5742487,7.8781925 16.9043939,7.92100188 C16.9721071,7.92101001 17.0313626,7.93813683 17.0821605,7.9723828 C17.1329435,8.00664456 17.1752688,8.05588457 17.2091369,8.12010283 C17.2429894,8.18433663 17.2662683,8.26140777 17.2789738,8.35131649 C17.2916636,8.44124075 17.2980123,8.55470667 17.2980201,8.69171473 C17.2980123,8.82873761 17.2916636,8.94434444 17.2789738,9.0385357 Z" transform="translate(3 3)"/>
  </g>
</svg>
